<svg xmlns="http://www.w3.org/2000/svg" width="24" height="24" viewBox="0 0 24 24" fill="currentColor">
    <path d="M 10.494949,1.6426573 8.4703936,1.1147922 A 3.4053734,3.4053734 0 0 0 4.3021908,3.532028 L 3.7968566,5.4407108 A 10.428554,10.428554 0 0 1 10.494949,1.6426573 Z"/>
    <path d="M 1.6145852,13.658025 1.118907,15.528083 a 3.4053734,3.4053734 0 0 0 2.4172358,4.164984 l 1.9312136,0.514991 A 10.431772,10.431772 0 0 1 1.6145852,13.658025 Z"/>
    <path d="M 20.46323,4.298076 18.297052,3.7219306 a 10.428554,10.428554 0 0 1 3.991175,6.9845564 L 22.883685,8.4534041 A 3.4053734,3.4053734 0 0 0 20.46323,4.298076 Z"/>
    <path d="m 13.456143,22.325955 2.076055,0.560052 a 3.4053734,3.4053734 0 0 0 4.164984,-2.417235 l 0.585802,-2.201584 a 10.434991,10.434991 0 0 1 -6.826841,4.058767 z"/>
    <path d="M 12.001296,2.4602044 A 9.5369767,9.5369767 0 1 0 21.535054,11.997181 9.5369767,9.5369767 0 0 0 12.001296,2.4602044 Z M 6.6003351,7.2174273 A 2.7230112,2.7230112 0 1 1 8.7600757,10.407149 2.7230112,2.7230112 0 0 1 6.6003351,7.2174273 Z m 3.9622069,8.2398447 a 2.7230112,2.7230112 0 1 1 -2.1565222,-3.19294 2.7230112,2.7230112 0 0 1 2.1565222,3.19294 z m 1.155509,-2.204802 a 1.2102272,1.2102272 0 1 1 1.419442,-0.965607 1.2102272,1.2102272 0 0 1 -1.419442,0.965607 z m 5.680987,3.518027 a 2.7230112,2.7230112 0 1 1 -2.159741,-3.189721 2.7230112,2.7230112 0 0 1 2.159741,3.189721 z m -1.802466,-5.046905 a 2.7230112,2.7230112 0 1 1 3.189721,-2.1597401 2.7230112,2.7230112 0 0 1 -3.189721,2.1629591 z"/>
</svg>