<svg xmlns="http://www.w3.org/2000/svg" width="24" height="24" viewBox="0 0 24 24" fill="currentColor">
  <path d="M 23,12 C 23,5.924876 18.075124,1 12,1 5.924876,1 1,5.924876 1,12 1,17.15878 4.55146,21.487368 9.342664,22.676072 V 15.361424 H 7.074376 V 12 h 2.268288 v -1.448436 c 0,-3.744048 1.694352,-5.479408 5.370112,-5.479408 0.696872,0 1.899348,0.13662 2.391268,0.273284 V 8.392616 C 16.8444,8.365292 16.393488,8.351608 15.833236,8.351608 c -1.803692,0 -2.500608,0.683232 -2.500608,2.4596 V 12 h 3.592996 l -0.617232,3.361424 h -2.975764 v 7.558012 C 18.779212,22.261592 23,17.623992 23,12"/>
</svg>