<svg xmlns="http://www.w3.org/2000/svg" width="24" height="24" viewBox="0 0 24 24" fill="none" stroke="currentColor" stroke-width="2" stroke-linecap="round" stroke-linejoin="round">
    <path d="M21 15a2 2 0 0 1-2 2H7l-4 4V5a2 2 0 0 1 2-2h14a2 2 0 0 1 2 2z"/>
<!--    <path d="M10 12s.8 1 2 1c1.3 0 2-1 2-1"/>-->
<!--    <line x1="9" x2="9" y1="8" y2="8"/>-->
<!--    <line x1="15" x2="15" y1="8" y2="8"/>-->
    <path d="M8 11s1.5 2 4 2 4-2 4-2"/>
    <line x1="9" x2="9" y1="7" y2="7"/>
    <line x1="15" x2="15" y1="7" y2="7"/>
</svg>