<svg xmlns="http://www.w3.org/2000/svg" width="24" height="24" viewBox="0 0 24 24" fill="currentColor">
    <path d="M 7.8584759,2.0698719 C 6.7944652,2.1200724 6.0678578,2.2898741 5.4326514,2.5394766 4.7752447,2.7956792 4.2180391,3.1394827 3.6636335,3.6958884 3.1092279,4.252294 2.7678244,4.8098997 2.5134218,5.4683063 2.2672193,6.1049128 2.1004177,6.8321201 2.0534172,7.8967309 c -0.047001,1.0646108 -0.057401,1.4068142 -0.052201,4.1224411 0.0052,2.715628 0.0172,3.056031 0.068801,4.122842 0.050801,1.063811 0.2200023,1.790218 0.4696048,2.425625 0.2566026,0.657406 0.6000061,1.214412 1.1566117,1.769018 0.5566057,0.554605 1.1138113,0.895209 1.773818,1.150011 0.6360064,0.245803 1.3634138,0.413404 2.4278245,0.460005 1.0644108,0.0466 1.4070143,0.0574 4.1218418,0.0522 2.714827,-0.0052 3.056631,-0.0172 4.123242,-0.0678 1.06661,-0.0506 1.789218,-0.221003 2.424824,-0.469405 0.657407,-0.257203 1.214812,-0.600006 1.769018,-1.156812 0.554206,-0.556805 0.895409,-1.114811 1.149612,-1.773618 0.246402,-0.636006 0.413804,-1.363413 0.460004,-2.427024 0.0466,-1.067411 0.0576,-1.408215 0.0524,-4.123442 -0.0052,-2.7152273 -0.0174,-3.0556307 -0.068,-4.1220415 C 21.880218,6.7923197 21.710816,6.0681124 21.461413,5.432306 21.204411,4.7748993 20.861407,4.2182937 20.305002,3.663288 19.748596,3.1082824 19.19019,2.7672789 18.531584,2.5136764 17.895177,2.2674739 17.16817,2.0996722 16.103759,2.0536717 c -1.064411,-0.046 -1.407014,-0.057801 -4.122841,-0.052601 -2.7158278,0.0052 -3.0558313,0.0168 -4.1224421,0.068801 M 7.9752771,20.147655 C 7.0002673,20.105254 6.4708619,19.943253 6.1180583,19.807651 5.6508536,19.627649 5.3180502,19.410047 4.9664467,19.061844 4.6148431,18.71364 4.3988409,18.379637 4.2164391,17.913432 4.0794377,17.560628 3.914436,17.031823 3.8688356,16.056813 c -0.0496,-1.05381 -0.060001,-1.370214 -0.065801,-4.040041 -0.0058,-2.6698264 0.0044,-2.9858296 0.0506,-4.0400403 C 3.8952358,7.0025218 4.0582375,6.4725165 4.1936389,6.1199129 4.3736407,5.6521082 4.5904429,5.3199048 4.9394464,4.9685013 5.2884499,4.6170977 5.6214533,4.4006955 6.088058,4.2182937 6.4404616,4.0806923 6.9692669,3.9170906 7.9438768,3.8706901 c 1.0546107,-0.050001 1.3706139,-0.060001 4.0400412,-0.065801 2.669427,-0.0058 2.98623,0.0042 4.04124,0.050601 0.97421,0.0424 1.504416,0.2038021 1.856619,0.3400034 0.467405,0.1800019 0.800008,0.396204 1.151412,0.7458076 0.351403,0.3496035 0.568006,0.6814069 0.750407,1.1490116 0.137802,0.3514036 0.301403,0.8800089 0.347404,1.8552188 0.0502,1.0546107 0.0616,1.3708139 0.0664,4.0400405 0.0048,2.669227 -0.0046,2.98623 -0.0508,4.040041 -0.0426,0.97501 -0.204202,1.504615 -0.340003,1.857819 -0.180002,0.467004 -0.397004,0.800008 -0.746208,1.151211 -0.349203,0.351204 -0.681807,0.567606 -1.148612,0.750008 -0.352003,0.137401 -0.881408,0.301403 -1.855218,0.347804 -1.054611,0.0496 -1.370614,0.06 -4.041041,0.0658 -2.670427,0.0058 -2.9854302,-0.005 -4.0400409,-0.0506 M 16.127559,6.6553183 A 1.2000121,1.2000121 0 1 0 17.325172,5.4533062 1.2000121,1.2000121 0 0 0 16.127559,6.6553183 M 6.8654659,12.009972 c 0.0056,2.836029 2.3088234,5.129852 5.1442521,5.124452 2.835428,-0.0054 5.130852,-2.308423 5.125452,-5.144452 -0.0054,-2.8360284 -2.309224,-5.1304516 -5.145052,-5.1248515 -2.8358289,0.0056 -5.1300522,2.3092233 -5.1246521,5.1448515 m 1.8012182,-0.0036 a 3.3334337,3.3334337 0 1 1 3.3400339,3.326834 3.3330337,3.3330337 0 0 1 -3.3400339,-3.326834"/>
</svg>