<svg xmlns="http://www.w3.org/2000/svg" width="24" height="24" viewBox="0 0 24 24" fill="currentColor">
    <path d="M 19.04095,19.041108 H 16.07757 V 14.40034 c 0,-1.106636 -0.0198,-2.531216 -1.54126,-2.531216 -1.54343,0 -1.77957,1.205723 -1.77957,2.450649 v 4.721026 H 9.79337 V 9.4974981 h 2.84484 v 1.3041939 h 0.0398 a 3.117717,3.117717 0 0 1 2.80687,-1.5415729 c 3.0035,0 3.55728,1.9755829 3.55728,4.5456939 z M 6.44969,8.1929961 A 1.7196833,1.7196833 0 1 1 8.16907,6.4730041 1.7196833,1.7196833 0 0 1 6.44969,8.1929961 M 7.93138,19.041108 H 4.96492 V 9.4974981 H 7.93138 Z M 20.51831,2.0017041 H 3.47582 A 1.459462,1.459462 0 0 0 2,3.4432621 V 20.556441 a 1.460388,1.460388 0 0 0 1.47582,1.443102 H 20.51831 A 1.4634749,1.4634749 0 0 0 22,20.556441 V 3.4420271 a 1.4625488,1.4625488 0 0 0 -1.48169,-1.441558"/>
</svg>