<svg xmlns="http://www.w3.org/2000/svg" width="24" height="24" viewBox="0 0 24 24" fill="none" stroke="currentColor" stroke-width="2" stroke-linecap="round" stroke-linejoin="round">
  <path d="m 12,21 c 3.313708,0 6,-2.686291 6,-6 V 9 C 18,5.686291 15.313708,3 12,3 8.686291,3 6,5.686291 6,9 v 3"/>
<!--  <path d="m 18,13 v -1 a 2,2 0 1 1 4,0 v 1 a 2,2 0 1 1 -4,0 z"/>-->
<!--  <path d="M 6,13 V 12 C 6,9.333334 2,9.333334 2,12 v 1 c 0,2.666666 4,2.666666 4,0 z"/>-->
  <path d="m 18,13 v -1 C 18,11.333334 18,10 18,10 c 0,0 1.5,0 2,0 1,0 2,0.666666 2,2 v 1 c 0,1.333334 -1,2 -2,2 -0.5,0 -2,2e-6 -2,2e-6 0,0 0,-1.333334 0,-2 z"/>
  <path d="m 6,13 v -1 V 10 H 4 c -1,0 -2,0.666666 -2,2 v 1 c 0,1.333334 1,2 2,2 L 6,15 Z"/>
  <path d="M10 16s.8 1 2 1c1.3 0 2-1 2-1"/>
</svg>