<svg xmlns="http://www.w3.org/2000/svg" width="24" height="24" viewBox="0 0 24 24" fill="currentColor">
    <path d="M 11.999998,1 A 11,11 0 0 0 1.0000015,12 11,11 0 0 0 11.999999,23 a 11,11 0 0 0 11,-11 A 11,11 0 0 0 11.999998,1 Z m 4.4975,6.62209 c 0.091,-0.002 0.29446,0.0209 0.42625,0.12787 0.11128,0.0903 0.14188,0.21229 0.15653,0.2979 0.0147,0.0856 0.0329,0.28065 0.0184,0.43304 -0.16554,1.73936 -0.88181,5.96033 -1.24622,7.90844 -0.15419,0.82432 -0.4578,1.10071 -0.75174,1.12776 -0.63879,0.0588 -1.12389,-0.42218 -1.74259,-0.82775 -0.96815,-0.63463 -1.51506,-1.02969 -2.45481,-1.64897 -1.0860395,-0.71568 -0.382,-1.10903 0.23693,-1.75188 0.16198,-0.16823 2.976501,-2.72827 3.03097,-2.9605 0.007,-0.029 0.0131,-0.13731 -0.0512,-0.19448 -0.0643,-0.0572 -0.15928,-0.0376 -0.22778,-0.0221 -0.0971,0.022 -1.64371,1.04433 -4.6398505,3.06681 -0.439,0.30145 -0.83663,0.44834 -1.1929,0.44064 -0.39276,-0.008 -1.14826,-0.22207 -1.7099,-0.40464 -0.68887,-0.22392 -1.236403,-0.34235 -1.188728,-0.72264 0.02483,-0.19809 0.297618,-0.40064 0.818338,-0.60771 3.20672,-1.39712 5.3450705,-2.31818 6.4149805,-2.76319 3.05481,-1.27061 3.68957,-1.49134 4.1033,-1.49862 z"/>
</svg>