<svg xmlns="http://www.w3.org/2000/svg" width="24" height="24" viewBox="0 0 24 24" fill="currentColor">
    <path d="m 3.37489,10.84797 c 5.36869,-2.33906 8.94867,-3.8811 10.73991,-4.62615 5.11438,-2.12724 6.1771,-2.49677 6.86977,-2.50897 0.15235,-0.003 0.49298,0.0351 0.71363,0.21411 0.18631,0.15118 0.23757,0.3554 0.26211,0.49874 0.0245,0.14333 0.0551,0.46985 0.0308,0.72498 -0.27715,2.91204 -1.47637,9.97879 -2.08647,13.24032 -0.25815,1.38007 -0.76647,1.84281 -1.25858,1.88809 -1.06946,0.0984 -1.88156,-0.70677 -2.91739,-1.38577 -1.62087,-1.0625 -2.53655,-1.72391 -4.10988,-2.76071 -1.81826,-1.1982 -0.63956,-1.85676 0.39666,-2.93302 0.27118,-0.28166 4.98326,-4.56766 5.07447,-4.95647 0.0114,-0.0486 0.022,-0.22989 -0.0857,-0.3256 -0.10769,-0.0957 -0.26662,-0.063 -0.3813,-0.0369 -0.16257,0.0369 -2.75192,1.74837 -7.76807,5.1344 -0.73498,0.5047 -1.4007,0.7506 -1.99716,0.73771 C 6.20014,13.73853 4.93527,13.38094 3.99497,13.07529 2.84165,12.70039 1.92502,12.50218 2.00484,11.86549 2.04644,11.53386 2.50309,11.1947 3.37489,10.84802 Z"/>
</svg>