<svg xmlns="http://www.w3.org/2000/svg" width="24" height="24" viewBox="0 0 24 24" fill="none" stroke="currentColor" stroke-width="2" stroke-linecap="round" stroke-linejoin="round">
  <!--  <path d="M5 18H3c-.6 0-1-.4-1-1V7c0-.6.4-1 1-1h10c.6 0 1 .4 1 1v11"/>-->
  <path d="M 14,18 V 7 C 14,6.4 13.6,6 13,6 h -1"/>
  <!--  <path d="m 2,6 h 6 m 4,0 h 1 c 0.6,0 1,0.4 1,1 V 18 M 4,9 h 4 m -2,3 h 2"/>-->
  <!--  <path d="M 2,6 H 8 M 4,8.9999997 H 8 M 6,12 h 2"/>-->
  <path d="M 2,6 H 8 M 4,9.9999999 H 8 M 6,14 h 2"/>
  <path d="M14 9h4l4 4v4c0 .6-.4 1-1 1h-2"/>
  <path d="M 15,18 H 9"/>
  <circle cx="17" cy="18" r="2"/>
</svg>