<svg xmlns="http://www.w3.org/2000/svg" viewBox="0 0 3515.6 5000" width="3515.6" height="5000" fill="currentColor">
  <path d="M 3223.1,489.5 2990.1,892.7 862.8,517.5 c 59.4,-27 125.4,-51.3 197.2,-72.4 197.8,-58.4 438.4,-92.5 697.8,-92.5 418.1,0 787.4,88.8 1007.4,224.2 L 2941.1,272 C 2644.4,104.5 2224,0 1757.8,0 858.6,0 129.8,388.6 129.8,868.2 c 0,137.8 60.3,268.4 167.9,384.2 L 533,845 2652.8,1218.9 c -91.5,41.5 -198.9,76.8 -318.4,103.8 -171.7,39.1 -368.1,61.1 -576.6,61.1 -414.5,0 -780.7,-87.3 -1001.4,-220.5 L 580.6,1468 c 296.4,165.4 714.3,268.4 1177.2,268.4 226.5,0 442.2,-24.7 638.3,-69.3 59.7,-13.6 117.7,-28.9 173.6,-46.1 487.8,-149.9 816.1,-430.9 816.1,-752.8 0,-135.7 -58.4,-264.2 -162.7,-378.7 z"/>
  <path d="m 3225.6,1545.2 c -16.1,16.2 -35.5,24.2 -58.3,24.2 -22.8,0 -42.2,-8.1 -58.2,-24.2 -15.9,-16.1 -23.9,-35.6 -23.9,-58.5 0,-22.7 8,-42 24.1,-58.1 16,-16 35.3,-24 58,-24 22.8,0 42.2,8 58.3,24 16.1,16 24.1,35.4 24.1,58.1 0,22.8 -8,42.3 -24.1,58.5 z m -108.4,-108.6 c -13.8,13.8 -20.6,30.6 -20.6,50.1 0,19.7 6.8,36.6 20.5,50.5 13.8,13.9 30.5,20.9 50.1,20.9 19.6,0 36.4,-7 50.1,-20.9 13.8,-13.9 20.7,-30.7 20.7,-50.5 0,-19.6 -6.9,-36.3 -20.7,-50.1 -13.8,-13.9 -30.6,-20.9 -50.1,-20.9 -19.4,0 -36.1,7 -50,20.9 z m 48.5,4.7 c 11.2,0 19.4,1.1 24.7,3.3 9.4,3.9 14,11.5 14,22.9 0,8.1 -3,14 -8.9,17.8 -3.1,2 -7.5,3.5 -13.1,4.4 7.1,1.1 12.3,4.1 15.6,8.9 3.3,4.8 4.9,9.5 4.9,14 v 6.6 c 0,2.1 0.1,4.3 0.2,6.7 0.2,2.4 0.4,3.9 0.8,4.7 l 0.6,1.1 h -14.9 c -0.1,-0.3 -0.2,-0.6 -0.2,-0.9 -0.1,-0.3 -0.1,-0.6 -0.2,-1 l -0.3,-2.9 v -7.2 c 0,-10.5 -2.8,-17.4 -8.5,-20.8 -3.4,-1.9 -9.3,-2.9 -17.7,-2.9 H 3150 v 35.7 h -15.9 v -90.4 z m 17.1,14.2 c -4,-2.2 -10.4,-3.4 -19.2,-3.4 H 3150 v 32.8 h 14.4 c 6.7,0 11.8,-0.7 15.1,-2 6.2,-2.5 9.3,-7.2 9.3,-14.1 0,-6.6 -2,-11 -6,-13.3 z"/>
  <path d="m 315.5,4116.4 v -213 h -39.4 v -51.9 h 39.4 v -23 c 0,-15 2.2,-28.3 6.7,-39.9 4.5,-11.6 10.9,-21.3 19.3,-29.3 8.4,-7.9 18.6,-13.9 30.6,-18 12,-4.1 25.5,-6.1 40.5,-6.1 6.4,0 12.5,0.5 18.5,1.5 6,1 11.8,2.1 17.5,3.4 l -0.7,54.8 c -5.9,-1.5 -13.1,-2.2 -21.5,-2.2 -12.7,0 -22.6,3.1 -29.5,9.2 -6.9,6.1 -10.4,15 -10.4,26.6 v 23 h 52.6 v 51.9 h -52.6 v 213 z"/>
  <path d="m 729.7,4116.4 c -3.3,-6.4 -5.6,-14.3 -7.1,-23.7 -7.2,8 -16.2,14.8 -27.1,20.3 -10.9,5.5 -24.1,8.3 -39.8,8.3 -12.7,0 -24.6,-2 -35.6,-5.9 -11,-3.9 -20.6,-9.4 -28.6,-16.4 -8.1,-7 -14.4,-15.4 -19,-25.1 -4.6,-9.7 -6.8,-20.4 -6.8,-32 0,-13.9 2.6,-26.2 7.7,-37 5.1,-10.8 12.8,-19.9 23.1,-27.4 10.3,-7.5 23.1,-13.2 38.3,-17.1 15.3,-3.9 33,-5.9 53.3,-5.9 h 31.6 v -15.2 c 0,-12.2 -3.1,-22 -9.4,-29.4 -6.3,-7.3 -16.2,-11 -29.8,-11 -11.9,0 -21.3,2.9 -28,8.6 -6.8,5.7 -10.2,13.6 -10.2,23.5 h -70.8 c 0,-11.4 2.7,-22.3 8,-32.6 5.3,-10.3 12.9,-19.3 22.7,-26.9 9.8,-7.7 21.6,-13.8 35.5,-18.2 13.9,-4.5 29.4,-6.7 46.5,-6.7 15.3,0 29.5,2 42.6,5.9 13.1,3.9 24.3,9.8 33.8,17.5 9.5,7.8 16.8,17.5 22.2,29.1 5.3,11.7 8,25.3 8,40.8 V 4052 c 0,7.5 0.2,14.2 0.7,20.2 0.5,6 1.1,11.3 2,16.2 0.8,4.8 1.9,9.1 3.2,13 1.3,3.8 2.8,7.5 4.7,10.9 v 4.2 z m -58.6,-49.2 c 6,0 11.6,-0.7 16.8,-2.2 5.1,-1.5 9.8,-3.4 13.8,-5.8 4,-2.4 7.6,-5.1 10.7,-8.2 3,-3.1 5.4,-6.3 7.2,-9.6 v -45.5 h -29.1 c -9.3,0 -17.4,1 -24.2,3.1 -6.8,2 -12.5,4.9 -16.9,8.6 -4.4,3.7 -7.7,8 -9.8,13 -2.1,5 -3.2,10.4 -3.2,16.3 0,8.8 3.1,16.1 9.3,21.8 6.2,5.6 14.7,8.5 25.4,8.5 z"/>
  <path d="m 964.6,4116.4 v -213 h -39.4 v -51.9 h 39.4 v -23 c 0,-15 2.2,-28.3 6.7,-39.9 4.5,-11.6 10.9,-21.3 19.3,-29.3 8.4,-7.9 18.6,-13.9 30.6,-18 12,-4.1 25.5,-6.1 40.5,-6.1 6.4,0 12.5,0.5 18.5,1.5 6,1 11.8,2.1 17.5,3.4 l -0.7,54.8 c -5.9,-1.5 -13.1,-2.2 -21.5,-2.2 -12.7,0 -22.6,3.1 -29.5,9.2 -6.9,6.1 -10.4,15 -10.4,26.6 v 23 h 52.6 v 51.9 h -52.6 v 213 z"/>
  <path d="m 1378.7,4116.4 c -3.3,-6.4 -5.6,-14.3 -7.1,-23.7 -7.2,8 -16.2,14.8 -27.1,20.3 -10.9,5.5 -24.1,8.3 -39.8,8.3 -12.7,0 -24.6,-2 -35.6,-5.9 -11,-3.9 -20.6,-9.4 -28.6,-16.4 -8.1,-7 -14.4,-15.4 -19,-25.1 -4.6,-9.7 -6.8,-20.4 -6.8,-32 0,-13.9 2.6,-26.2 7.7,-37 5.1,-10.8 12.8,-19.9 23.1,-27.4 10.3,-7.5 23.1,-13.2 38.3,-17.1 15.2,-3.9 33,-5.9 53.3,-5.9 h 31.6 v -15.2 c 0,-12.2 -3.1,-22 -9.4,-29.4 -6.3,-7.3 -16.2,-11 -29.8,-11 -11.9,0 -21.3,2.9 -28,8.6 -6.7,5.7 -10.2,13.6 -10.2,23.5 h -70.8 c 0,-11.4 2.7,-22.3 8,-32.6 5.3,-10.3 12.8,-19.3 22.7,-26.9 9.8,-7.7 21.6,-13.8 35.5,-18.2 13.9,-4.5 29.4,-6.7 46.5,-6.7 15.3,0 29.5,2 42.6,5.9 13.1,3.9 24.3,9.8 33.8,17.5 9.5,7.8 16.9,17.5 22.2,29.1 5.3,11.7 8,25.3 8,40.8 V 4052 c 0,7.5 0.2,14.2 0.7,20.2 0.5,6 1.1,11.3 2,16.2 0.8,4.8 1.9,9.1 3.2,13 1.3,3.8 2.9,7.5 4.7,10.9 v 4.2 z m -58.5,-49.2 c 6,0 11.6,-0.7 16.8,-2.2 5.1,-1.5 9.8,-3.4 13.8,-5.8 4,-2.4 7.6,-5.1 10.6,-8.2 3,-3.1 5.4,-6.3 7.2,-9.6 v -45.5 h -29.1 c -9.3,0 -17.4,1 -24.2,3.1 -6.9,2 -12.5,4.9 -16.9,8.6 -4.4,3.7 -7.7,8 -9.8,13 -2.1,5 -3.2,10.4 -3.2,16.3 0,8.8 3.1,16.1 9.3,21.8 6.2,5.6 14.7,8.5 25.5,8.5 z"/>
  <path d="m 1593.8,3782.9 c 0,-10.6 3.6,-19.3 10.6,-26.2 7.1,-6.9 16.8,-10.3 29,-10.3 6,0 11.5,0.9 16.4,2.7 4.9,1.8 9.1,4.3 12.5,7.6 3.4,3.3 6.1,7.1 8,11.6 1.9,4.5 2.8,9.3 2.8,14.6 0,5.4 -0.9,10.3 -2.8,14.8 -1.9,4.5 -4.5,8.4 -8,11.6 -3.4,3.3 -7.6,5.8 -12.5,7.6 -4.9,1.8 -10.4,2.7 -16.4,2.7 -6,0 -11.5,-0.9 -16.4,-2.7 -4.9,-1.8 -9.1,-4.3 -12.5,-7.6 -3.4,-3.3 -6.1,-7.1 -8,-11.6 -1.7,-4.4 -2.7,-9.4 -2.7,-14.8 z m 75.2,333.5 h -71 v -264.9 h 71 z"/>
  <path d="m 1912.2,3786.4 v 65.1 h 45.3 v 51.9 h -45.3 v 132.2 c 0,5.6 0.6,10.1 1.7,13.7 1.1,3.6 2.9,6.4 5.1,8.4 2.3,2 5.1,3.4 8.4,4.2 3.3,0.7 7.3,1.1 11.9,1.1 4.2,0 8.1,-0.2 11.6,-0.5 3.5,-0.3 6.6,-0.7 9.2,-1.2 v 53.6 c -5.9,1.8 -12.3,3.3 -19.2,4.5 -6.9,1.2 -14.8,1.8 -23.6,1.8 -11.6,0 -22,-1.4 -31.3,-4.3 -9.3,-2.9 -17.3,-7.4 -23.9,-13.6 -6.6,-6.2 -11.7,-14.3 -15.3,-24.2 -3.6,-9.9 -5.4,-22 -5.4,-36 v -139.8 h -38.7 v -51.9 h 38.7 v -65.1 z"/>
  <path d="m 2105.5,4072.3 c 0,-11.9 4.2,-22.1 12.6,-30.5 8.4,-8.4 18.5,-12.6 30.4,-12.6 11.8,0 21.9,4.2 30.2,12.6 8.3,8.4 12.5,18.5 12.5,30.4 0,11.8 -4.2,21.9 -12.5,30.4 -8.3,8.4 -18.4,12.6 -30.4,12.6 -3.3,0 -6.5,-0.4 -9.7,-1.1 -3.2,-0.7 -6.2,-1.8 -9.2,-3.3 -3,-1.5 -5.7,-3.3 -8.3,-5.4 -2.8,-2.3 -5.2,-4.9 -7.3,-7.7 -2.1,-2.8 -3.8,-5.8 -5.1,-8.9 -2.1,-5.3 -3.2,-10.8 -3.2,-16.5 z"/>
  <path d="m 2419.5,3851.5 2.2,30.6 c 9.1,-11.4 20.2,-20.2 33.1,-26.3 12.9,-6.1 27.3,-9.2 43.1,-9.2 12.6,0 24,1.8 34.3,5.3 10.3,3.5 19.1,9.3 26.4,17.3 7.3,8 13,18.4 17,31.3 4,12.9 6,28.7 6,47.5 v 168.4 h -70.8 v -168.9 c 0,-8.5 -0.9,-15.5 -2.8,-21.1 -1.9,-5.6 -4.6,-9.9 -8.2,-13.2 -3.6,-3.3 -8,-5.6 -13.2,-7 -5.2,-1.4 -11.3,-2.1 -18.1,-2.1 -10.4,0 -19.4,2.3 -26.8,6.9 -7.4,4.6 -13.4,10.8 -18,18.6 v 186.8 h -70.8 v -264.9 z"/>
  <path d="m 2857.4,4121.3 c -20.6,0 -39,-3.4 -55.2,-10 -16.2,-6.6 -30,-15.8 -41.4,-27.4 -11.3,-11.6 -20,-25.2 -25.9,-40.8 -6,-15.6 -8.9,-32.3 -8.9,-50.1 v -9.6 c 0,-20.1 2.9,-38.5 8.7,-55.2 5.8,-16.7 14,-31.1 24.7,-43.2 10.7,-12.1 23.7,-21.5 38.9,-28.3 15.3,-6.8 32.4,-10.2 51.3,-10.2 19.1,0 35.9,3.1 50.4,9.4 14.5,6.3 26.7,15.1 36.6,26.4 9.9,11.3 17.3,25 22.3,41 5,16 7.5,33.8 7.5,53.4 v 30.1 h -168.7 c 1.1,8.6 3.5,16.5 7,23.5 3.5,7 8,13 13.5,18 5.5,5 11.9,8.9 19.2,11.6 7.3,2.8 15.6,4.2 24.7,4.2 12.9,0 24.8,-2.4 35.7,-7.2 10.9,-4.8 20.3,-12.3 28.1,-22.4 l 34.8,38.9 c -4.2,6 -9.6,11.9 -15.9,17.6 -6.4,5.7 -13.9,10.8 -22.5,15.3 -8.6,4.5 -18.4,8.1 -29.3,10.8 -10.8,2.8 -22.7,4.2 -35.6,4.2 z m -8.1,-217.4 c -7.7,0 -14.4,1.4 -20.2,4 -5.8,2.6 -10.8,6.4 -14.9,11.3 -4.2,4.8 -7.6,10.6 -10.2,17.3 -2.6,6.7 -4.5,14.1 -5.6,22.3 h 98.4 v -5.6 c -0.2,-7 -1.2,-13.6 -3.1,-19.6 -1.9,-6 -4.7,-11.3 -8.6,-15.7 -3.9,-4.4 -8.7,-7.8 -14.7,-10.3 -5.8,-2.5 -12.9,-3.7 -21.1,-3.7 z"/>
  <path d="m 3191.5,3786.4 v 65.1 h 45.3 v 51.9 h -45.3 v 132.2 c 0,5.6 0.6,10.1 1.7,13.7 1.1,3.6 2.9,6.4 5.1,8.4 2.3,2 5.1,3.4 8.4,4.2 3.3,0.7 7.3,1.1 11.9,1.1 4.2,0 8.1,-0.2 11.6,-0.5 3.5,-0.3 6.6,-0.7 9.2,-1.2 v 53.6 c -5.9,1.8 -12.3,3.3 -19.2,4.5 -6.9,1.2 -14.8,1.8 -23.6,1.8 -11.6,0 -22,-1.4 -31.3,-4.3 -9.3,-2.9 -17.3,-7.4 -23.9,-13.6 -6.6,-6.2 -11.7,-14.3 -15.3,-24.2 -3.6,-9.9 -5.4,-22 -5.4,-36 V 3903.3 H 3082 v -51.9 h 38.7 v -65.1 z"/>
  <path d="m 2403.7,4629.2 c -6.6,-5.5 -14.4,-8.3 -23.4,-8.3 -13.1,0 -19.7,4.7 -19.7,14 0,5.6 2.3,10.1 7,13.6 5.2,1.7 15,2.6 29.3,2.6 h 16.6 c 0.1,-9 -3.2,-16.3 -9.8,-21.9 z"/>
  <path d="m 2233,4653.7 -42.4,-0.9 25.4,25.8 c 16,-7 24.1,-13.6 24.1,-19.7 -0.1,-2.6 -2.5,-4.3 -7.1,-5.2 z"/>
  <path d="M 3182.3,3502.6 H 333.3 C 149.5,3502.6 0,3652.1 0,3835.9 v 830.8 C 0,4850.5 149.5,5000 333.3,5000 h 2849 c 183.8,0 333.3,-149.5 333.3,-333.3 v -830.8 c 0,-183.8 -149.5,-333.3 -333.3,-333.3 z M 348.7,4771.6 H 296.2 V 4657 c 0,-28.9 -3.2,-56.1 -9.6,-81.8 -0.3,-0.9 -1.3,-4.2 -3.1,-10.1 -2.6,-8.5 -5.1,-15.8 -7.4,-21.9 l 52.9,-16.2 13.1,53.8 c 1.7,7 3.3,18.7 4.6,35.2 1.3,16.5 2,30.1 2,40.9 z M 652,4640.2 c -12.7,14.1 -26.2,21.2 -40.5,21.2 -14.9,0 -26.4,-8.3 -34.5,-24.9 -11.4,14 -26.1,21 -44.2,21 h -3.9 c -2.6,0 -5.1,-0.1 -7.4,-0.4 -2.3,-0.3 -4.2,-1 -5.7,-2.2 -1.2,-0.3 -3.1,-1.2 -5.7,-2.6 v 119.4 h -52.5 v -109.3 c 0,-43.7 -6.6,-83.4 -19.7,-118.9 l 52.5,-16.2 15.3,64.7 c 1.2,5 3.2,8.9 6.1,11.8 2,1.8 5.4,3.1 10.1,3.9 12,0 17.9,-5.5 17.9,-16.6 l -7,-49.8 c 1.4,0 2.9,-0.1 4.4,-0.4 1.5,-0.3 3.4,-0.9 5.7,-1.7 8.8,-1.8 20.1,-5.4 34.1,-10.9 h 5.7 l 6.1,39.8 2.2,19.7 1.3,16.6 c 0.6,0.9 2.1,2 4.4,3.5 1.2,0.3 3.2,0.9 6.1,1.8 7.9,0 13,-3.5 15.3,-10.5 1.2,-3.2 1.7,-5.8 1.7,-7.9 l -6.6,-49 49.4,-15.7 6.6,56.8 0.4,8.7 c 1,17.8 -4.9,33.9 -17.6,48.1 z m 260.1,-13.4 c -9.3,19 -17.9,40.2 -25.8,63.8 -5,14.6 -8.5,26.7 -10.5,36.5 -2,9.8 -5,24.5 -8.7,44.4 h -48.5 c -5.5,-36.4 -11.5,-63.7 -17.9,-81.8 -2.3,-7.6 -6.1,-18.1 -11.4,-31.5 -2.9,-7.3 -7.4,-16.9 -13.6,-28.9 -12.2,-23.3 -25.9,-48.1 -41.1,-74.3 l -3.1,-4.8 46.8,-23.6 c 21.6,34.4 38,67.3 49.4,98.8 9.6,26.2 14.6,47.7 14.9,64.3 0,-28.5 11.2,-64.7 33.7,-108.4 7.6,-14.9 18.2,-33.1 31.9,-54.6 l 47.2,23.6 c -16,25.4 -30.5,50.9 -43.3,76.5 z m 268.2,146.1 c -8.4,-14.9 -18.5,-33.2 -30.2,-55.1 -9.9,-18.9 -16.8,-33.4 -20.5,-43.3 -3.8,-9 -7.3,-20.6 -10.5,-34.5 -2.6,-11.1 -3.9,-20.8 -3.9,-29.3 0,16.9 -4.5,37.8 -13.6,62.5 -12,31.2 -29,64.4 -51.2,99.7 l -46.8,-23.6 c 17.2,-28.6 31.5,-54.2 42.9,-77 19.8,-40.5 34.4,-88.6 43.7,-144.3 h 49.8 c 4.7,32.6 10.5,60.2 17.5,82.6 6.1,19.2 14.3,38.8 24.5,58.6 6.1,12.5 21.3,39.2 45.5,80 z m 535.7,71.9 h -53.3 v -54.2 h 53.3 z m 75.5,0 h -53.3 v -54.2 h 53.3 z m 121,-148.7 c 0,19.5 -5.8,34.8 -17.5,45.7 -11.7,10.9 -27.4,16.4 -47.2,16.4 h -21.4 -17.1 -2.6 c -11.4,0 -19.6,-0.5 -24.7,-1.5 -5.1,-1 -11.8,-4 -19.9,-9 -5.5,3.8 -14.9,6.5 -28,8.1 -13.1,1.6 -31.2,2.4 -54.2,2.4 l -33.2,-0.4 c -10.1,-0.4 -18.2,-1.1 -24.1,-2.2 -7.9,-1.5 -13.9,-3.9 -17.9,-7.4 -2.3,1.5 -4.7,2.8 -7,3.9 -3.2,1.5 -8.5,3.4 -15.8,5.7 -4.1,0.3 -7.1,0.4 -9.2,0.4 h -181.5 c -16.6,0 -30.6,-6.9 -42,-20.6 -10.8,-12.8 -16.2,-27.7 -16.2,-44.6 v -61.7 h 54.2 v 56.9 c 0,3.5 0.1,6 0.2,7.4 0.1,1.5 0.9,3.8 2.4,7 1.4,1.8 5.8,2.6 13.1,2.6 h 158.7 c 4.4,0 8.2,-0.9 11.4,-2.8 3.2,-1.9 4.8,-6.6 4.8,-14.2 v -56.9 h 53.8 v 56.9 c 0,5.2 1.6,9.8 4.8,13.5 2.6,1.5 12.1,2.6 28.4,3.5 h 17.5 c 18.7,0 29.2,-0.1 31.5,-0.4 14.3,-2 21.4,-7.6 21.4,-16.6 v -56.9 h 53.8 v 56.9 c 0,7.6 1.7,12.5 5.2,14.9 2.9,0.9 13.6,1.6 31.9,2.2 h 18.8 c 6.1,0 10.2,-1.7 12.2,-5.2 0,0.3 0.3,-1.9 0.9,-6.5 0.6,-3.2 0.9,-7.4 0.9,-12.7 v 0 -161.4 h 53.4 z m -497.3,-96.2 v -54.2 h 53.3 v 54.2 z m 75.5,0 v -54.2 h 53.3 v 54.2 z m 952.2,139.5 c -14,12.5 -32.2,18.8 -54.6,18.8 h -79.2 -15.3 -0.9 c -19.5,0 -33.4,-1 -41.5,-3.1 -11.7,-2.6 -23.9,-9 -36.7,-19.2 -11.7,9 -22.9,15 -33.7,17.9 -11.7,2.9 -25.4,4.4 -41.1,4.4 h -8.3 -14 l -90.9,-1 c -25.7,-1.7 -42.9,-7.9 -51.4,-18.7 -10.1,-12.8 -15.1,-27 -15.1,-42.4 v -176.7 h 52.9 v 161.4 c 0,11.1 1.4,18.2 4.4,21.4 2.6,1.5 10.8,2.5 24.5,3 h 75.6 9.6 l 27.6,-0.4 c 4.4,0 7.6,-0.1 9.6,-0.4 4.4,-0.9 7.1,-2.3 8.3,-4.4 l -44.2,-43.7 28.4,-55.1 h 79.6 c 18.1,0 32.1,5.2 42,15.5 9.9,10.3 15.1,22.8 15.7,37.4 0.3,13.1 -5.1,26.5 -16.2,40.2 -2,1.8 -6.1,5 -12.2,9.6 l 18.4,1.3 h 9.6 15.3 88.8 c 3.8,0 6.7,-1.9 8.7,-5.7 -30.3,0 -51,-2.9 -62.1,-8.7 -16.9,-8.5 -25.5,-26 -25.8,-52.5 0,-19.2 6.7,-34.8 20.1,-46.8 13.4,-12 29.7,-17.9 49,-17.9 18.9,0 34.7,5.9 47.2,17.7 12.5,11.8 20.4,27.2 23.6,46.1 0.9,5.8 1.4,12.2 1.8,19.2 l 1.8,30.2 c 1.1,22.6 -5.4,40.1 -19.3,52.6 z m -84.9,-195 v -54.2 h 53.3 v 54.2 z m 303.9,197.7 c 0,26.5 -9.3,50.3 -27.8,71.3 -18.5,21 -40.9,31.5 -67.1,31.5 h -54.2 l -7.9,-54.2 h 49.9 c 16,0 29,-4 38.9,-12 9.9,-8 14.9,-17.3 14.9,-27.8 v 0 -119.4 h 53.8 z m 0.4,-143.5 h -53.8 v -54.2 h 53.8 z m 218.2,159.6 h -18.4 -86.6 v -1 c -25.7,-1.7 -42.9,-7.9 -51.4,-18.7 -10.1,-12.8 -15.1,-27 -15.1,-42.4 v -176.7 h 52.9 v 161.4 c 0,11.1 1.5,18.2 4.4,21.4 2.6,1.5 10.8,2.5 24.5,3 h 71.3 18.4 21 l -5.7,-18.8 -2.2,-18.4 c 0,-19.2 6.9,-35 20.6,-47.4 13.7,-12.4 30.8,-18.6 51.2,-18.6 28,0 53.1,11.2 75.2,33.7 l -25.8,42.4 c -8.5,-7 -17.1,-12.2 -25.8,-15.8 -7.6,-3.8 -14.1,-5.7 -19.7,-5.7 -14.9,0 -22.3,8 -22.3,24 0,5.8 1.7,11.7 5.2,17.5 3.8,4.7 8.4,7 14,7 v 0 h 77.4 l 7,52.9 z m 61.2,-184.5 v -54.2 h 53.3 v 54.2 z m 244.5,184.5 h -53.4 v -224.8 h 53.4 z m 42.8,-238.7 h -108.4 c -5.5,1.7 -11.8,9.2 -18.8,22.3 l -49.4,-19.7 c 15.1,-29.7 29.7,-46.9 43.7,-51.6 5.8,-2 31.2,-3.2 76.1,-3.5 18.6,-0.3 41.1,-0.3 67.3,0 z m 253.1,-525.7 c 0,172.7 -133.4,319.9 -305.8,327.9 -5.3,0.2 -10.6,0.4 -16,0.4 h -2805 c -5.4,0 -10.7,-0.1 -16,-0.4 -172.5,-8 -305.8,-155.2 -305.8,-327.9 v -158 C 33.5,3670.2 167.7,3536 333.3,3536 h 2849 c 165.6,0 299.8,134.2 299.8,299.8 z"/>
  <path d="m 322.4,3051.1 c 0,55.4 -18.5,88.9 -55.5,100.7 -22.1,-82.6 -54.5,-175.5 -97.3,-278.8 l -39.8,22.7 c 42.3,97.5 74.9,185.7 97.8,264.6 -25.1,1.6 -51.4,0.6 -78.9,-2.9 v 43.7 c 13.7,2.6 31.6,3.9 53.8,3.9 107.8,0 161.7,-51.2 161.7,-153.5 v -192.9 h -41.8 z"/>
  <path d="m 555.5,2965.7 c 0,15.8 9.2,30.8 27.5,45.1 19.3,15.1 41.3,34.2 65.9,57.2 16.7,15.6 25.1,31.3 25.1,47.1 -0.2,30.7 -33.5,46.1 -99.9,46.1 h -30.6 -3.6 -0.7 c -34.9,0 -52.4,-20.3 -52.4,-60.8 v -241.9 h -42 v 242.4 c 0,69.9 31.2,104.8 93.7,104.8 h 1.4 3.6 30.9 c 94.3,0 141.9,-28.2 142.9,-84.5 0.5,-27.2 -9.7,-52.1 -30.7,-74.8 -19.5,-20.9 -50.2,-49 -92.2,-84.2 l 162.2,-60.4 V 2858 l -167.3,63.5 c -22.6,8.5 -33.8,23.3 -33.8,44.2 z"/>
  <polygon points="1141.1,3057.4 1105.7,3022 1070.6,3057.1 1106,3092.5 "/>
  <polygon points="1449.3,3282.1 1484.7,3317.5 1519.9,3282.4 1484.5,3247 "/>
  <polygon points="1370.8,3282.1 1406.2,3317.5 1441.3,3282.4 1405.9,3247 "/>
  <path d="m 1378.6,3205.6 h 14.2 c 37.8,0 64.9,-6.2 81.4,-18.6 22.5,-17.1 33.8,-45.3 33.8,-84.7 0,-23.7 -3.9,-48 -11.8,-73.1 l -39.4,9.9 c 5.9,23.5 8.9,44.8 8.9,64 0,25.6 -6.8,42.4 -20.5,50.4 -9.2,5.1 -26.6,7.7 -52.4,7.7 h -14.2 -4.1 -65.2 -3.6 -1 c -24.8,0 -40.3,-9.7 -46.6,-29 l -17.6,-55 -41.8,14.5 c 14.6,29.9 22,59.7 22,89.3 -0.3,71.6 -38.7,107.4 -115.2,107.4 -70.2,0 -105.3,-31.1 -105.3,-93.2 0,-27.4 6.8,-58.1 20.3,-92.2 l -38.4,-15.7 c -16.2,39.3 -24.4,75.4 -24.4,108.4 0,90.3 48.7,135.4 146.1,135.4 72.1,0 120.1,-24.4 144.1,-73.1 10.5,-21.7 15.8,-43.7 15.9,-65.9 9.5,9 23.4,13.5 41.8,13.5 h 3.6 65.2 z"/>
  <path d="m 1938.5,3039.1 c 5.9,23.5 8.9,44.8 8.9,64 0,25.6 -6.8,42.4 -20.5,50.4 -9.2,5.1 -26.6,7.7 -52.4,7.7 h -14.5 -3.9 -2.2 c -34,0 -50.9,-29.4 -50.9,-88.1 v -214.6 h -41.8 v 192.6 c 0,55.4 -18.5,88.9 -55.5,100.7 -22.1,-82.6 -54.5,-175.5 -97.3,-278.8 l -39.8,22.7 c 42.2,97.4 74.8,185.6 97.8,264.6 -25.6,1.6 -51.9,0.6 -78.9,-2.9 v 43.7 c 13.7,2.6 31.6,3.9 53.8,3.9 63.9,0 108.9,-17.9 134.9,-53.8 10.5,36.4 35.2,54.6 74.4,54.6 h 5.5 3.9 14.5 c 37.8,0 64.9,-6.2 81.4,-18.6 22.5,-17.1 33.8,-45.3 33.8,-84.7 0,-23.7 -3.9,-48 -11.8,-73.1 z"/>
  <polygon points="1971.6,2953.3 1936.2,2918 1901.1,2953.1 1936.5,2988.5 "/>
  <path d="m 2111.9,2814.6 -36,-5.8 c -27.4,-4.3 -50.5,7.2 -69.5,34.5 l 24.4,25.6 c 14.8,-17.5 31.1,-25.1 49,-22.7 l 34,4.8 c 23.8,3.2 46.1,-1.6 66.9,-14.5 l -15.9,-33.1 c -19.6,10.1 -37.3,13.8 -52.9,11.2 z"/>
  <rect x="2079.1001" y="2893.5" width="41.799999" height="311.89999"/>
  <path d="m 2610.1,3205.6 h 3.6 14.7 c 37.8,0 64.9,-6.2 81.4,-18.6 22.5,-17.1 33.8,-45.3 33.8,-84.7 0,-23.7 -3.9,-48 -11.8,-73.1 l -39.4,9.9 c 5.9,23.5 8.9,44.8 8.9,64 0,25.6 -6.8,42.4 -20.5,50.4 -9.2,5.1 -26.6,7.7 -52.4,7.7 h -14.7 -3.6 -1.2 c -19.2,0 -38.1,-24 -57,-71.9 l -47.8,-121.4 -39.8,18.4 30.7,72.7 c 14.6,34.8 22,57.2 22,67.4 0,23.2 -25.4,34.8 -76,34.8 -24.3,0 -47.7,-2.3 -70.2,-7 v 44.4 c 24.5,4.7 47.5,7 69,7 49.4,0 84.7,-12.9 106,-38.6 15.3,25.9 36.4,38.9 63.3,38.9 z"/>
  <polygon points="2685,3282.1 2720.4,3317.5 2755.5,3282.4 2720.1,3247 "/>
  <polygon points="2606.4,3282.1 2641.8,3317.5 2677,3282.4 2641.6,3247 "/>
  <polygon points="3250.2,2919.8 3214.8,2884.4 3179.7,2919.5 3215.1,2954.9 "/>
  <path d="m 3269.2,3028.9 c -28.5,-13.8 -53,-20.8 -73.4,-20.8 -36.5,0.2 -64.9,16.9 -85.2,50.2 l -3.9,6.8 37.2,18.4 6.8,-8.7 c 11.8,-15.1 26.7,-22.7 44.9,-22.7 11.4,0 32.9,6.4 64.5,19.1 30.6,12.4 48,19.1 52.1,20.3 l -17.9,9.2 c -78.2,40.4 -143.9,60.6 -197,60.6 h -10.3 -4.1 -64.9 -3.9 -2.9 c -23.3,0 -38.6,-12.5 -45.9,-37.4 l -13.8,-46.6 -41,14.5 c 12.7,27.2 19.1,52.9 19.1,77 0.2,67 -45.4,105 -136.6,114.2 l 10.1,41 c 102,-10.9 157.6,-54.6 166.8,-131.1 6.4,8.5 21.1,12.8 43.9,12.8 h 0.2 3.9 64.9 4.1 7.5 c 56.7,0 119.5,-18.2 188.5,-54.6 49.7,-26.2 83.9,-40.1 102.4,-41.8 l 0.5,-42 c -27.5,-1.1 -66.4,-13.9 -116.6,-38.4 z"/>
  <path d="m 712.6,2248.3 c -9.2,-81.5 -36.5,-137.1 -82,-166.7 -9.2,-5.7 -19.1,-10.1 -29.6,-13.1 -10.6,-3 -21.7,-4.5 -33.4,-4.5 -35.1,0 -64.4,12.2 -88,36.5 -11.7,11.9 -21.3,26.2 -28.9,42.7 -7.6,16.5 -13.4,35.1 -17.3,55.8 -0.8,3.7 -1.4,7.5 -1.9,11.2 -0.5,3.7 -0.9,7.5 -1.1,11.4 -0.2,3.9 -0.4,7.6 -0.4,11.4 0.5,37.8 12.7,66.6 36.5,86.3 23.9,19.8 57.5,29.6 101.1,29.6 6.7,0 13.2,-0.2 19.6,-0.6 6.3,-0.4 12.7,-1 19,-1.9 6.3,-0.9 12.5,-1.9 18.5,-3.2 -4.5,14.2 -17.1,25.4 -37.9,33.6 -20.8,8.2 -50.8,12.3 -90.1,12.3 h -92.1 -6 -101.4 -5.2 -1.5 c -22.9,0 -39.7,-6.1 -50.3,-18.3 -10.4,-12.4 -15.7,-32.7 -15.7,-60.8 v -343.8 -14.9 h -14.9 -64.9 -14.9 v 14.9 344.8 c 0,56.9 13.5,100.7 40.6,131.3 27.1,30.3 66.8,45.5 119,45.5 h 2.6 5.2 101.4 6 88 c 78.3,0 133.7,-12.2 166.3,-36.5 37.5,-28.1 56.3,-79.8 56.3,-155.1 0,-7.7 -0.2,-15.5 -0.8,-23.3 -0.4,-8 -1.1,-16.1 -1.8,-24.6 z m -116.9,4.5 c -7.8,1 -15.6,1.5 -23.3,1.5 -19.4,0.2 -32.8,-2.2 -40.1,-7.5 -7.3,-5.2 -11,-13.2 -11,-23.9 0,-2.2 0.1,-4.5 0.4,-6.9 0.2,-2.4 0.6,-4.9 1.1,-7.5 0.5,-2.6 1.2,-5.3 2.2,-8 4.5,-14.4 9.9,-24.6 16.4,-30.6 6.5,-6 14.3,-8.9 23.5,-8.9 4,0 7.6,0.5 11,1.5 3.4,1 6.6,2.7 9.7,5.2 3.1,2.5 6.2,5.8 9.1,9.9 3,4.1 5.8,9.1 8.6,15.1 3.5,7.7 6.5,16.2 9.1,25.4 2.6,9.2 4.9,19.4 6.9,30.6 -7.9,1.7 -15.8,3.1 -23.6,4.1 z"/>
  <polygon points="623.2,1958.9 617.6,1953.3 562.9,1898.6 557.4,1893.1 551.8,1898.6 497.5,1952.9 491.9,1958.5 497.5,1964.1 552.2,2018.7 557.8,2024.3 563.3,2018.7 617.6,1964.5 "/>
  <polygon points="1283.8,1958.9 1278.2,1953.3 1223.5,1898.6 1217.9,1893.1 1212.4,1898.6 1158.1,1952.9 1152.5,1958.5 1158.1,1964.1 1212.7,2018.7 1218.3,2024.3 1223.9,2018.7 1278.2,1964.5 "/>
  <path d="m 1373.2,2248.3 c -9.2,-81.5 -36.5,-137.1 -82,-166.7 -9.2,-5.7 -19.1,-10.1 -29.6,-13.1 -10.6,-3 -21.7,-4.5 -33.4,-4.5 -35.1,0 -64.4,12.2 -88,36.5 -11.7,11.9 -21.3,26.2 -28.9,42.7 -7.6,16.5 -13.4,35.1 -17.3,55.8 -0.8,3.7 -1.4,7.5 -1.9,11.2 -0.5,3.7 -0.9,7.5 -1.1,11.4 -0.2,3.9 -0.4,7.6 -0.4,11.4 0.5,37.8 12.7,66.6 36.5,86.3 23.9,19.8 57.5,29.6 101.1,29.6 6.7,0 13.2,-0.2 19.6,-0.6 6.4,-0.4 12.7,-1 19,-1.9 6.3,-0.9 12.5,-1.9 18.5,-3.2 -4.5,14.2 -17.1,25.4 -37.9,33.6 -20.8,8.2 -50.8,12.3 -90.1,12.3 h -92.1 -6 -101.4 -5.2 -1.5 c -22.9,0 -39.7,-6.1 -50.3,-18.3 -10.4,-12.4 -15.7,-32.7 -15.7,-60.8 v -343.8 -14.9 h -14.9 -64.9 -14.9 v 14.9 344.8 c 0,56.9 13.5,100.7 40.6,131.3 27.1,30.3 66.8,45.5 119,45.5 h 2.6 5.2 101.4 6 88 c 78.3,0 133.7,-12.2 166.3,-36.5 37.5,-28.1 56.3,-79.8 56.3,-155.1 0,-7.7 -0.2,-15.5 -0.8,-23.3 -0.5,-8 -1.1,-16.1 -1.8,-24.6 z m -116.9,4.5 c -7.8,1 -15.6,1.5 -23.3,1.5 -19.4,0.2 -32.8,-2.2 -40.1,-7.5 -7.3,-5.2 -11,-13.2 -11,-23.9 0,-2.2 0.1,-4.5 0.4,-6.9 0.2,-2.4 0.6,-4.9 1.1,-7.5 0.5,-2.6 1.2,-5.3 2.2,-8 4.5,-14.4 9.9,-24.6 16.4,-30.6 6.5,-6 14.3,-8.9 23.5,-8.9 4,0 7.6,0.5 11,1.5 3.4,1 6.6,2.7 9.7,5.2 3.1,2.5 6.2,5.8 9.1,9.9 3,4.1 5.8,9.1 8.6,15.1 3.5,7.7 6.5,16.2 9.1,25.4 2.6,9.2 4.9,19.4 6.9,30.6 -7.9,1.7 -15.8,3.1 -23.6,4.1 z"/>
  <polygon points="3211,2014.7 3205.4,2009.1 3152,1955.7 3146.4,1950.1 3140.8,1955.7 3087.7,2008.8 3082.2,2014.3 3087.7,2019.9 3141.2,2073.4 3146.8,2079 3152.4,2073.4 3205.4,2020.3 "/>
  <path d="m 3366.8,2207.3 -4.1,-13.8 -13.8,3.7 -63.8,17.1 -14.9,4.1 4.5,14.5 c 10.4,36.5 15.7,66.9 15.7,91 0,24.1 -3.4,41 -10.1,50.5 -6.7,9.5 -16.9,14.4 -30.6,14.4 -4,0 -7.7,-0.2 -11.2,-0.8 -3.5,-0.5 -6.7,-1.2 -9.5,-2.2 -2.9,-1 -5.4,-2.4 -7.6,-4.1 -2.2,-1.7 -4.3,-3.8 -6.1,-6.1 -1.9,-2.4 -3.4,-5.1 -4.5,-8.2 -1.1,-3.1 -2.1,-6.6 -3,-10.4 -0.9,-3.9 -1.4,-8.1 -1.7,-12.9 l -6,-86.5 -1.1,-15.3 -15.7,1.5 -61.1,7.5 -14.5,1.5 1.5,14.5 1.9,22.8 c 0.2,3.7 0.5,7.5 0.8,11.2 0.2,3.7 0.4,7.4 0.6,11 0.1,3.6 0.2,7.3 0.2,11 0,9.2 -0.6,16.9 -1.9,23.1 -3,15.2 -8.8,26.1 -17.5,32.8 -8.7,6.7 -21.5,10.1 -38.4,10.1 -18.4,0 -31.7,-3.5 -39.9,-10.6 -8.2,-7.1 -12.8,-18.6 -13.8,-34.5 l -6,-86.5 -1.1,-15.3 -15.7,1.5 -61.5,7.5 -14.2,1.5 1.1,14.5 2.2,22.8 c 0.2,4 0.5,7.8 0.8,11.6 0.2,3.7 0.4,7.4 0.6,11 0.1,3.6 0.2,7.1 0.2,10.6 0,9.2 -0.6,16.9 -1.9,23.1 -3,14.4 -10.2,25.2 -21.6,32.2 -11.4,7.1 -28.7,10.6 -51.8,10.6 h -16.4 -5.2 -3 c -80.8,0 -135.7,60.7 -164.8,182 -21.6,-20.9 -36.5,-49.1 -44.8,-84.6 28.1,-9.2 48.6,-18.3 61.5,-27.2 68.1,-46.5 103,-107.6 104.8,-183.5 0.5,-41.5 -9.5,-74.6 -29.8,-99.2 -20.6,-25.1 -48.5,-37.7 -83.5,-37.7 -34.3,0 -63.2,12.6 -86.5,37.7 -36.3,39 -57.7,109.9 -64.1,212.5 h -53.7 -6.3 -100.3 -6 -100.7 -6 -100.7 -6 -100.7 -6 -100.7 -5.9 -4.5 c -14.9,0 -26.9,-3.7 -35.8,-11 -8.9,-7.3 -15.9,-19.3 -20.9,-36 l -20.9,-72 -4.5,-14.9 -14.9,5.2 -63.4,22 -15.7,5.6 7.1,14.9 c 18.6,40 28,77.6 28,112.6 0.2,47.5 -15.7,84.6 -47.7,111.3 -32.1,26.7 -82,43.4 -149.9,50.2 l -17.1,1.9 4.1,16.8 16,63.4 3,12.7 13.1,-1.5 c 75.8,-8.2 136.3,-28.3 181.4,-60.2 45.1,-31.9 73.5,-75.8 85.2,-131.4 14.2,6 33.2,8.9 57.1,8.9 h 0.4 5.9 100.7 6 100.7 6 100.7 6 100.7 6 100.3 6.3 60 c 9.7,49.7 27.6,92.3 53.7,127.9 26.1,35.5 60.2,63.3 102.2,83.2 l 9.3,4.5 7.5,-7.1 45.9,-44.4 4.9,-4.9 -0.4,-7.1 c -4.7,-51 -1.2,-88.4 10.4,-112.2 11.4,-23.9 30.3,-37.1 56.7,-39.5 1.7,0 3.4,-0.1 4.9,-0.4 1.7,0 3.5,0 5.2,0 h 3.7 5.2 15.7 c 53.9,0 93.6,-13.5 119,-40.6 21.1,26.9 55.7,40.4 103.7,40.6 42.5,0 77.1,-13.8 103.7,-41.4 6.7,9.2 14.8,16.9 24.2,22.9 9.4,6.1 19.9,10.6 31.5,13.6 11.6,3 24.2,4.5 37.9,4.5 34.6,0 62.6,-9.4 84.3,-28.3 33.3,-29.3 50.1,-74.4 50.3,-135.4 0,-0.5 0,-0.9 0,-1.1 0,-0.2 0,-0.6 0,-1.1 -0.3,-35.4 -6.7,-73.4 -19.6,-114.2 z m -765.9,109.8 c 4,-20 8.6,-35.5 14,-46.6 5.3,-11.1 11,-19.1 17,-24.2 6,-5.1 12.3,-7.5 19,-7.3 2.7,0 5.1,0.2 7.1,0.8 2,0.5 3.9,1.2 5.6,2.2 1.7,1 3.2,2.3 4.5,3.9 1.2,1.6 2.3,3.7 3.2,6.3 0.9,2.6 1.5,5.7 1.9,9.1 0.4,3.5 0.6,7.6 0.6,12.3 0,33.8 -10.1,61.4 -30.2,82.8 -15.4,16.7 -32.4,27.1 -51.1,31.3 1.5,-27 4.4,-50.6 8.4,-70.6 z"/>
  <polygon points="3147.6,2118.5 3149.2,2120.1 3202.6,2173.5 3208.2,2179.1 3213.8,2173.5 3266.9,2120.5 3272.5,2114.9 3266.9,2109.3 3213.4,2055.8 3207.8,2050.2 3202.2,2055.8 3149.2,2108.9 3147.2,2110.9 3145.6,2109.3 3092.1,2055.8 3086.5,2050.2 3081,2055.8 3027.9,2108.9 3022.3,2114.5 3027.9,2120.1 3081.4,2173.5 3086.9,2179.1 3092.5,2173.5 3145.6,2120.5 "/>
</svg>