<svg xmlns="http://www.w3.org/2000/svg" viewBox="0 0 3256.6 2703.3999" width="3256.6" height="2703.3999" fill="currentColor">
  <path d="m 3093.3,489.49995 -233,403.2 -2127.29995,-375.2 c 59.4,-27 125.4,-51.3 197.2,-72.4 197.79995,-58.4 438.40005,-92.5 697.79995,-92.5 418.1001,0 787.4,88.8 1007.4,224.2 l 175.9,-304.8 C 2514.6001,104.49995 2094.2001,-4.8828125e-5 1628,-4.8828125e-5 728.80005,-4.8828125e-5 5e-5,388.59995 5e-5,868.19995 5e-5,1006 60.30005,1136.6 167.90005,1252.4 l 235.3,-407.40005 L 2523.0001,1218.9 c -91.5,41.5 -198.9,76.8 -318.4,103.8 -171.7,39.1 -368.1,61.1 -576.6,61.1 -414.5,0 -780.70005,-87.3 -1001.40005,-220.5 l -175.8,304.7 c 296.4,165.4 714.30005,268.4 1177.20005,268.4 226.5,0 442.2,-24.7 638.3,-69.3 59.7,-13.6 117.7,-28.9 173.6,-46.1 487.8,-149.9 816.1,-430.9 816.1,-752.80005 0,-135.7 -58.4,-264.2 -162.7001,-378.7 z"/>
  <path d="m 3095.8,1545.2 c -16.0999,16.2 -35.5,24.2 -58.3,24.2 -22.8,0 -42.2,-8.1 -58.2,-24.2 -15.9,-16.1 -23.9,-35.6 -23.9,-58.5 0,-22.7 8,-42 24.1,-58.1 16,-16 35.3,-24 58,-24 22.8,0 42.2,8 58.3,24 16.1,16 24.1,35.4 24.1,58.1 0,22.8 -8,42.3 -24.1,58.5 z m -108.4,-108.6 c -13.8,13.8 -20.6,30.6 -20.6,50.1 0,19.7 6.8001,36.6 20.5,50.5 13.8001,13.9 30.5,20.9 50.1,20.9 19.6,0 36.4,-7 50.1,-20.9 13.8,-13.9 20.7,-30.7 20.7,-50.5 0,-19.6 -6.9,-36.3 -20.7,-50.1 -13.8,-13.9 -30.6,-20.9 -50.1,-20.9 -19.4,0 -36.1,7 -50,20.9 z m 48.5,4.7 c 11.2,0 19.4,1.1 24.7,3.3 9.4,3.9 14,11.5 14,22.9 0,8.1 -3,14 -8.9,17.8 -3.1,2 -7.5,3.5 -13.1,4.4 7.1,1.1 12.3,4.1 15.6,8.9 3.3,4.8 4.9,9.5 4.9,14 v 6.6 c 0,2.1 0.1,4.3 0.2,6.7 0.2,2.4 0.4,3.9 0.8,4.7 l 0.6,1.1 h -14.9 c -0.1,-0.3 -0.2,-0.6 -0.2,-0.9 -0.1,-0.3 -0.1,-0.6 -0.2,-1 l -0.3,-2.9 v -7.2 c 0,-10.5 -2.8,-17.4 -8.5,-20.8 -3.4,-1.9 -9.3,-2.9 -17.7,-2.9 h -12.6999 v 35.7 H 3004.3 v -90.4 z m 17.1,14.2 c -4,-2.2 -10.4,-3.4 -19.2,-3.4 h -13.5999 v 32.8 h 14.4 c 6.6999,0 11.8,-0.7 15.1,-2 6.1999,-2.5 9.3,-7.2 9.3,-14.1 0,-6.6 -2,-11 -6.0001,-13.3 z"/>
  <path d="m 582.80005,2248.3 c -9.2,-81.5 -36.5,-137.1 -82,-166.7 -9.2,-5.7 -19.1,-10.1 -29.6,-13.1 -10.6,-3 -21.7,-4.5 -33.4,-4.5 -35.1,0 -64.4,12.2 -88,36.5 -11.7,11.9 -21.3,26.2 -28.9,42.7 -7.6,16.5 -13.4,35.1 -17.3,55.8 -0.8,3.7 -1.4,7.5 -1.9,11.2 -0.5,3.7 -0.9,7.5 -1.1,11.4 -0.2,3.9 -0.4,7.6 -0.4,11.4 0.5,37.8 12.7,66.6 36.5,86.3 23.9,19.8 57.5,29.6 101.1,29.6 6.7,0 13.2,-0.2 19.6,-0.6 6.3,-0.4 12.7,-1 19,-1.9 6.3,-0.9 12.5,-1.9 18.5,-3.2 -4.5,14.2 -17.1,25.4 -37.9,33.6 -20.8,8.2 -50.8,12.3 -90.1,12.3 h -92.1 -6 -101.4 -5.2 -1.5 c -22.9,0 -39.7,-6.1 -50.3,-18.3 -10.4,-12.4 -15.7,-32.7 -15.7,-60.8 v -343.8 -14.9 h -14.9 -64.9 -14.9 v 14.9 344.8 c 0,56.9 13.5,100.7 40.6,131.3 27.1,30.3 66.8,45.5 119,45.5 h 2.6 5.2 101.4 6 88 c 78.3,0 133.7,-12.2 166.3,-36.5 37.5,-28.1 56.3,-79.8 56.3,-155.1 0,-7.7 -0.2,-15.5 -0.8,-23.3 -0.4,-8 -1.1,-16.1 -1.8,-24.6 z m -116.9,4.5 c -7.8,1 -15.6,1.5 -23.3,1.5 -19.4,0.2 -32.8,-2.2 -40.1,-7.5 -7.3,-5.2 -11,-13.2 -11,-23.9 0,-2.2 0.1,-4.5 0.4,-6.9 0.2,-2.4 0.6,-4.9 1.1,-7.5 0.5,-2.6 1.2,-5.3 2.2,-8 4.5,-14.4 9.9,-24.6 16.4,-30.6 6.5,-6 14.3,-8.9 23.5,-8.9 4,0 7.6,0.5 11,1.5 3.4,1 6.6,2.7 9.7,5.2 3.1,2.5 6.2,5.8 9.1,9.9 3,4.1 5.8,9.1 8.6,15.1 3.5,7.7 6.5,16.2 9.1,25.4 2.6,9.2 4.9,19.4 6.9,30.6 -7.9,1.7 -15.8,3.1 -23.6,4.1 z"/>
  <polygon points="551.8,1898.6 497.5,1952.9 491.9,1958.5 497.5,1964.1 552.2,2018.7 557.8,2024.3 563.3,2018.7 617.6,1964.5 623.2,1958.9 617.6,1953.3 562.9,1898.6 557.4,1893.1 "
     transform="translate(-129.79995,-4.8828125e-5)" />
  <polygon points="1212.4,1898.6 1158.1,1952.9 1152.5,1958.5 1158.1,1964.1 1212.7,2018.7 1218.3,2024.3 1223.9,2018.7 1278.2,1964.5 1283.8,1958.9 1278.2,1953.3 1223.5,1898.6 1217.9,1893.1 "
     transform="translate(-129.79995,-4.8828125e-5)" />
  <path d="m 1243.4001,2248.3 c -9.2,-81.5 -36.5,-137.1 -82,-166.7 -9.2,-5.7 -19.1,-10.1 -29.6,-13.1 -10.6,-3 -21.7,-4.5 -33.4,-4.5 -35.1,0 -64.4001,12.2 -88,36.5 -11.70005,11.9 -21.30005,26.2 -28.90005,42.7 -7.6,16.5 -13.4,35.1 -17.3,55.8 -0.8,3.7 -1.4,7.5 -1.9,11.2 -0.5,3.7 -0.9,7.5 -1.1,11.4 -0.2,3.9 -0.4,7.6 -0.4,11.4 0.5,37.8 12.7,66.6 36.5,86.3 23.90005,19.8 57.49995,29.6 101.09995,29.6 6.7,0 13.2,-0.2 19.6,-0.6 6.4,-0.4 12.7,-1 19,-1.9 6.3,-0.9 12.5,-1.9 18.5,-3.2 -4.5,14.2 -17.1,25.4 -37.9,33.6 -20.8,8.2 -50.8,12.3 -90.1,12.3 h -92.09995 -6 -101.4 -5.2 -1.5 c -22.9,0 -39.7,-6.1 -50.3,-18.3 -10.4,-12.4 -15.7,-32.7 -15.7,-60.8 v -343.8 -14.9 h -14.9 -64.9 -14.9 v 14.9 344.8 c 0,56.9 13.5,100.7 40.6,131.3 27.1,30.3 66.8,45.5 119,45.5 h 2.6 5.2 101.4 6 88.00005 c 78.3,0 133.7,-12.2 166.3,-36.5 37.5,-28.1 56.2999,-79.8 56.2999,-155.1 0,-7.7 -0.2,-15.5 -0.7999,-23.3 -0.5,-8 -1.1,-16.1 -1.8,-24.6 z m -116.9001,4.5 c -7.7999,1 -15.5999,1.5 -23.2999,1.5 -19.4001,0.2 -32.8,-2.2 -40.1,-7.5 -7.3,-5.2 -11,-13.2 -11,-23.9 0,-2.2 0.1,-4.5 0.4,-6.9 0.2,-2.4 0.6,-4.9 1.1,-7.5 0.5,-2.6 1.2,-5.3 2.2,-8 4.5,-14.4 9.9,-24.6 16.4,-30.6 6.5,-6 14.3,-8.9 23.5,-8.9 4,0 7.6,0.5 11,1.5 3.4,1 6.6,2.7 9.7,5.2 3.1,2.5 6.2,5.8 9.1,9.9 3,4.1 5.8,9.1 8.6,15.1 3.5,7.7 6.5,16.2 9.1,25.4 2.5999,9.2 4.9,19.4 6.9,30.6 -7.9,1.7 -15.8,3.1 -23.6001,4.1 z"/>
  <polygon points="3140.8,1955.7 3087.7,2008.8 3082.2,2014.3 3087.7,2019.9 3141.2,2073.4 3146.8,2079 3152.4,2073.4 3205.4,2020.3 3211,2014.7 3205.4,2009.1 3152,1955.7 3146.4,1950.1 "
     transform="translate(-129.79995,-4.8828125e-5)" />
  <path d="m 3237.0001,2207.3 -4.1,-13.8 -13.8,3.7 -63.8001,17.1 -14.9,4.1 4.5,14.5 c 10.4,36.5 15.7,66.9 15.7,91 0,24.1 -3.4,41 -10.1,50.5 -6.7,9.5 -16.9,14.4 -30.6,14.4 -4,0 -7.6999,-0.2 -11.1999,-0.8 -3.5,-0.5 -6.7,-1.2 -9.5,-2.2 -2.9001,-1 -5.4001,-2.4 -7.6,-4.1 -2.2,-1.7 -4.3001,-3.8 -6.1,-6.1 -1.9,-2.4 -3.4,-5.1 -4.5,-8.2 -1.1,-3.1 -2.1,-6.6 -3,-10.4 -0.9,-3.9 -1.4,-8.1 -1.7,-12.9 l -6,-86.5 -1.1,-15.3 -15.7,1.5 -61.1,7.5 -14.5,1.5 1.5,14.5 1.9,22.8 c 0.2,3.7 0.5,7.5 0.8,11.2 0.2,3.7 0.4,7.4 0.6,11 0.1,3.6 0.2,7.3 0.2,11 0,9.2 -0.6,16.9 -1.9,23.1 -3,15.2 -8.8,26.1 -17.5,32.8 -8.7,6.7 -21.5,10.1 -38.4,10.1 -18.4,0 -31.7,-3.5 -39.9,-10.6 -8.2,-7.1 -12.8,-18.6 -13.8,-34.5 l -6,-86.5 -1.1,-15.3 -15.7,1.5 -61.5,7.5 -14.2,1.5 1.1,14.5 2.2,22.8 c 0.2,4 0.5,7.8 0.8,11.6 0.2,3.7 0.4,7.4 0.6,11 0.1,3.6 0.2,7.1 0.2,10.6 0,9.2 -0.6,16.9 -1.9,23.1 -3,14.4 -10.2,25.2 -21.6,32.2 -11.4,7.1 -28.7,10.6 -51.8,10.6 h -16.4 -5.2 -3 c -80.8,0 -135.7,60.7 -164.8,182 -21.6,-20.9 -36.5,-49.1 -44.8001,-84.6 28.1,-9.2 48.6,-18.3 61.5,-27.2 68.1,-46.5 103,-107.6 104.8001,-183.5 0.5,-41.5 -9.5,-74.6 -29.8001,-99.2 -20.5999,-25.1 -48.5,-37.7 -83.5,-37.7 -34.3,0 -63.1999,12.6 -86.5,37.7 -36.3,39 -57.6999,109.9 -64.0999,212.5 h -53.7 -6.3 -100.3001 -6 -100.6999 -6 -100.7 -6 -100.7 -6 -100.7 -5.9 -4.5 c -14.9001,0 -26.9001,-3.7 -35.8,-11 C 1728.5,2371 1721.5,2359 1716.5,2342.3 l -20.9,-72 -4.5,-14.9 -14.9,5.2 -63.4,22 -15.7,5.6 7.1,14.9 c 18.6,40 28,77.6 28,112.6 0.2,47.5 -15.7,84.6 -47.7,111.3 -32.1,26.7 -82,43.4 -149.9,50.2 l -17.1,1.9 4.1,16.8 16,63.4 3,12.7 13.1,-1.5 c 75.8,-8.2 136.3,-28.3 181.4,-60.2 45.1,-31.9 73.5,-75.8 85.2,-131.4 14.2,6 33.2,8.9 57.1,8.9 h 0.4 5.9 100.7 6 100.7 6 100.7 6 100.7 6 100.3 6.3 60 c 9.7,49.7 27.6,92.3 53.7,127.9 26.1,35.5 60.2,63.3 102.2,83.2 l 9.3,4.5 7.5,-7.1 45.9,-44.4 4.9,-4.9 -0.4,-7.1 c -4.7,-51 -1.2,-88.4 10.4,-112.2 11.4,-23.9 30.3,-37.1 56.7,-39.5 1.7,0 3.4,-0.1 4.9,-0.4 1.7,0 3.5,0 5.2,0 h 3.7 5.2 15.7 c 53.9,0 93.6,-13.5 119,-40.6 21.1,26.9 55.7,40.4 103.7,40.6 42.5,0 77.1,-13.8 103.7,-41.4 6.7,9.2 14.8,16.9 24.2,22.9 9.4,6.1 19.9,10.6 31.5,13.6 11.6,3 24.2,4.5 37.9,4.5 34.6,0 62.6,-9.4 84.3,-28.3 33.3,-29.3 50.1,-74.4 50.3,-135.4 0,-0.5 0,-0.9 0,-1.1 0,-0.2 0,-0.6 0,-1.1 -0.3,-35.4 -6.7,-73.4 -19.5999,-114.2 z m -765.9,109.8 c 4,-20 8.6,-35.5 14,-46.6 5.3,-11.1 11,-19.1 17,-24.2 6,-5.1 12.3,-7.5 19,-7.3 2.6999,0 5.1,0.2 7.1,0.8 2,0.5 3.9,1.2 5.5999,2.2 1.7,1 3.2,2.3 4.5,3.9 1.2,1.6 2.3001,3.7 3.2,6.3 0.9,2.6 1.5,5.7 1.9,9.1 0.4,3.5 0.6,7.6 0.6,12.3 0,33.8 -10.1,61.4 -30.2,82.8 -15.4,16.7 -32.4,27.1 -51.0999,31.3 1.5,-27 4.4,-50.6 8.4,-70.6 z"
     id="path18" />
  <polygon points="3213.8,2173.5 3266.9,2120.5 3272.5,2114.9 3266.9,2109.3 3213.4,2055.8 3207.8,2050.2 3202.2,2055.8 3149.2,2108.9 3147.2,2110.9 3145.6,2109.3 3092.1,2055.8 3086.5,2050.2 3081,2055.8 3027.9,2108.9 3022.3,2114.5 3027.9,2120.1 3081.4,2173.5 3086.9,2179.1 3092.5,2173.5 3145.6,2120.5 3147.6,2118.5 3149.2,2120.1 3202.6,2173.5 3208.2,2179.1 "
     transform="translate(-129.79995,-4.8828125e-5)" />
</svg>