<svg xmlns="http://www.w3.org/2000/svg" viewBox="0 0 3256 3256" width="3256" height="3256" fill="currentColor">
  <path d="m 3093.3,1249.3 -233,403.2 L 733,1277.3 c 59.4,-27 125.4,-51.3 197.2,-72.4 197.8,-58.4 438.4,-92.5 697.8,-92.5 418.1,0 787.4,88.8 1007.4,224.2 l 175.9,-304.8 C 2514.6,864.3 2094.2,759.8 1628,759.8 728.8,759.8 0,1148.4 0,1628 c 0,137.8 60.3,268.4 167.9,384.2 L 403.2,1604.8 2523,1978.7 c -91.5,41.5 -198.9,76.8 -318.4,103.8 -171.7,39.1 -368.1,61.1 -576.6,61.1 -414.5,0 -780.7,-87.3 -1001.4,-220.5 l -175.8,304.7 c 296.4,165.4 714.3,268.4 1177.2,268.4 226.5,0 442.2,-24.7 638.3,-69.3 59.7,-13.6 117.7,-28.9 173.6,-46.1 487.8,-149.9 816.1,-430.9 816.1,-752.8 0,-135.7 -58.4,-264.2 -162.7,-378.7 z"/>
  <path d="m 3095.8,2305 c -16.1,16.2 -35.5,24.2 -58.3,24.2 -22.8,0 -42.2,-8.1 -58.2,-24.2 -15.9,-16.1 -23.9,-35.6 -23.9,-58.5 0,-22.7 8,-42 24.1,-58.1 16,-16 35.3,-24 58,-24 22.8,0 42.2,8 58.3,24 16.1,16 24.1,35.4 24.1,58.1 0,22.8 -8,42.3 -24.1,58.5 z m -108.4,-108.6 c -13.8,13.8 -20.6,30.6 -20.6,50.1 0,19.7 6.8,36.6 20.5,50.5 13.8,13.9 30.5,20.9 50.1,20.9 19.6,0 36.4,-7 50.1,-20.9 13.8,-13.9 20.7,-30.7 20.7,-50.5 0,-19.6 -6.9,-36.3 -20.7,-50.1 -13.8,-13.9 -30.6,-20.9 -50.1,-20.9 -19.4,0 -36.1,7 -50,20.9 z m 48.5,4.7 c 11.2,0 19.4,1.1 24.7,3.3 9.4,3.9 14,11.5 14,22.9 0,8.1 -3,14 -8.9,17.8 -3.1,2 -7.5,3.5 -13.1,4.4 7.1,1.1 12.3,4.1 15.6,8.9 3.3,4.8 4.9,9.5 4.9,14 v 6.6 c 0,2.1 0.1,4.3 0.2,6.7 0.2,2.4 0.4,3.9 0.8,4.7 l 0.6,1.1 h -14.9 c -0.1,-0.3 -0.2,-0.6 -0.2,-0.9 -0.1,-0.3 -0.1,-0.6 -0.2,-1 l -0.3,-2.9 v -7.2 c 0,-10.5 -2.8,-17.4 -8.5,-20.8 -3.4,-1.9 -9.3,-2.9 -17.7,-2.9 h -12.7 v 35.7 h -15.9 v -90.4 z m 17.1,14.2 c -4,-2.2 -10.4,-3.4 -19.2,-3.4 h -13.6 v 32.8 h 14.4 c 6.7,0 11.8,-0.7 15.1,-2 6.2,-2.5 9.3,-7.2 9.3,-14.1 0,-6.6 -2,-11 -6,-13.3 z"/>
</svg>